<svg xmlns="http://www.w3.org/2000/svg" xmlns:xlink="http://www.w3.org/1999/xlink" width="500" zoomAndPan="magnify" viewBox="0 0 375 374.999991" height="500" preserveAspectRatio="xMidYMid meet" version="1.0"><defs><clipPath id="5ffade9365"><path d="M 0 34.207031 L 375 34.207031 L 375 319.957031 L 0 319.957031 Z M 0 34.207031 " clip-rule="nonzero"/></clipPath></defs><g clip-path="url(#5ffade9365)"><path fill="#eaba6b" d="M 316.195312 118.933594 L 374.925781 153.265625 L 374.925781 110.726562 L 318.421875 110.726562 L 187.5 34.207031 L 56.589844 110.726562 L 0.0859375 110.726562 L 0.0859375 153.265625 L 53.992188 121.757812 L 53.992188 319.929688 L 62.203125 319.929688 L 62.203125 116.957031 L 187.5 43.714844 L 302.140625 110.726562 L 111.210938 110.726562 L 111.210938 319.929688 L 160.648438 319.929688 L 160.648438 232.746094 L 214.375 232.746094 L 214.375 319.929688 L 321.769531 319.929688 L 321.769531 150.679688 L 313.558594 150.679688 L 313.558594 311.71875 L 222.578125 311.71875 L 222.578125 224.539062 L 152.429688 224.539062 L 152.429688 311.71875 L 119.414062 311.71875 L 119.414062 118.933594 Z M 366.714844 118.933594 L 366.714844 138.957031 L 332.457031 118.933594 Z M 8.292969 138.957031 L 8.292969 118.933594 L 42.550781 118.933594 Z M 8.292969 138.957031 " fill-opacity="1" fill-rule="nonzero"/></g><path stroke-linecap="butt" transform="matrix(0.840742, 0, 0, 0.840742, 150.558335, 143.209092)" fill="none" stroke-linejoin="miter" d="M 46.931532 93.804243 C 37.234921 93.804243 29.921809 91.337113 24.982902 86.402853 C 20.020765 81.440716 17.544343 74.262343 17.544343 64.867735 L 17.544343 56.06784 L 39.223493 56.06784 L 39.223493 65.964238 C 39.223493 68.961034 39.892545 71.023945 41.226003 72.157617 C 42.564108 73.393505 44.311077 74.011449 46.480851 74.011449 C 48.743548 74.011449 50.495164 73.393505 51.731052 72.157617 C 52.962294 71.023945 53.580238 68.961034 53.580238 65.964238 C 53.580238 62.665438 52.446566 59.366639 50.179223 56.06784 C 47.911879 52.769041 44.14846 49.000976 38.88432 44.772938 C 34.981516 41.673926 31.733825 38.677129 29.141248 35.782549 C 26.469685 32.883323 24.304558 30.002682 22.64122 27.131333 C 21.005759 24.334323 19.820979 21.500143 19.091526 18.628794 C 18.362073 15.734214 17.995024 12.68631 17.995024 9.489727 C 17.995024 0.0951188 20.424984 -7.069315 25.284905 -12.003575 C 30.121595 -16.965712 37.388245 -19.446781 47.084856 -19.446781 C 56.906914 -19.446781 64.233965 -16.965712 69.070655 -12.003575 C 73.805129 -7.069315 76.170042 0.0951188 76.170042 9.489727 L 76.170042 15.195255 L 54.523416 15.195255 L 54.523416 8.546549 C 54.523416 5.549753 53.95658 3.431087 52.822908 2.199845 C 51.591666 0.963957 49.891158 0.346013 47.726031 0.346013 C 45.458688 0.346013 43.75818 0.963957 42.624508 2.199845 C 41.393266 3.431087 40.775322 5.549753 40.775322 8.546549 C 40.775322 10.307457 41.026217 11.956857 41.528006 13.494748 C 42.034441 15.15344 42.86611 16.802839 44.023013 18.442946 C 45.156685 20.203854 46.694576 22.015871 48.632039 23.883642 C 50.495164 25.718889 52.776446 27.735338 55.47124 29.923696 C 59.374044 32.999478 62.672843 35.931227 65.367637 38.728237 C 68.034553 41.622817 70.199681 44.456997 71.863019 47.22613 C 73.40091 50.125356 74.534581 53.019936 75.264034 55.914516 C 75.993487 58.785865 76.360536 61.768723 76.360536 64.867735 C 76.360536 74.262343 73.930576 81.440716 69.070655 86.402853 C 64.108518 91.337113 56.730359 93.804243 46.931532 93.804243 Z M 46.931532 91.653054 C 55.921921 91.653054 62.733244 89.320664 67.370147 84.665176 C 71.900188 80.028272 74.167532 73.430674 74.167532 64.867735 C 74.167532 61.768723 73.865529 58.888081 73.261524 56.216519 C 72.532071 53.623941 71.398399 50.994194 69.860508 48.322632 C 68.299386 45.753286 66.287584 43.072431 63.815807 40.275421 C 61.22323 37.580627 57.975539 34.699986 54.072735 31.624204 C 51.075938 29.231413 48.59487 27.005885 46.629529 24.938328 C 44.664188 23.000864 43.065897 21.10057 41.830009 19.237446 C 40.598767 17.471891 39.781036 15.720275 39.376817 13.982598 C 38.847151 12.323906 38.582318 10.507244 38.582318 8.546549 C 38.582318 4.741315 39.362879 2.06046 40.924 0.499338 C 42.461891 -1.038553 44.729235 -1.805175 47.726031 -1.805175 C 50.620611 -1.805175 52.887955 -1.038553 54.523416 0.499338 C 56.061307 2.06046 56.827929 4.741315 56.827929 8.546549 L 56.827929 12.890742 L 74.018854 12.890742 L 74.018854 9.489727 C 74.018854 1.029004 71.802618 -5.522132 67.370147 -10.154389 C 62.83546 -14.814524 56.075245 -17.142268 47.084856 -17.142268 C 38.117698 -17.142268 31.417884 -14.814524 26.985413 -10.154389 C 22.552942 -5.522132 20.336707 1.029004 20.336707 9.489727 C 20.336707 12.588739 20.638709 15.469381 21.242715 18.140944 C 21.874597 20.835737 23.017562 23.516592 24.6809 26.188155 C 26.218791 28.878302 28.272409 31.563803 30.841755 34.23072 C 33.332116 36.925513 36.482237 39.82474 40.282825 42.919106 C 43.279622 45.288666 45.811798 47.453793 47.874709 49.419134 C 49.84005 51.356598 51.438342 53.21043 52.67423 54.971338 C 53.807902 56.834463 54.625632 58.637187 55.127421 60.374864 C 55.657088 62.237988 55.921921 64.101113 55.921921 65.964238 C 55.921921 69.667256 55.090252 72.297003 53.43156 73.858124 C 51.693882 75.498231 49.375431 76.315962 46.480851 76.315962 C 43.683841 76.315962 41.416497 75.498231 39.67882 73.858124 C 37.917912 72.297003 37.035135 69.667256 37.035135 65.964238 L 37.035135 58.372353 L 19.886026 58.372353 L 19.886026 64.867735 C 19.886026 73.430674 22.148723 80.028272 26.68341 84.665176 C 31.218097 89.320664 37.964374 91.653054 46.931532 91.653054 Z M 46.931532 91.653054 " stroke="#0081af" stroke-width="4.255323" stroke-opacity="1" stroke-miterlimit="4"/><path stroke-linecap="butt" transform="matrix(0.840742, 0, 0, 0.840742, 229.546367, 230.521684)" fill="none" stroke-linejoin="miter" d="M 11.648617 -19.44689 L 33.327767 -19.44689 L 33.327767 26.638726 L 60.377919 26.638726 L 60.377919 -19.44689 L 82.210394 -19.44689 L 82.210394 0.991725 C 82.210394 8.393115 82.210394 15.808444 82.210394 23.237711 C 82.112824 30.769195 82.061716 38.096245 82.061716 45.22351 L 82.061716 93.804134 L 60.377919 93.804134 L 60.377919 47.867195 L 33.327767 47.867195 C 33.327767 50.134539 33.378875 53.535554 33.481092 58.070241 C 33.481092 62.702499 33.481092 67.599589 33.481092 72.761513 L 33.481092 93.804134 L 11.648617 93.804134 Z M 13.9903 91.652945 L 31.288087 91.652945 L 31.288087 59.315422 C 31.288087 56.216409 31.288087 53.433338 31.288087 50.966208 C 31.190517 48.475847 31.139409 46.659184 31.139409 45.525513 L 62.566278 45.525513 L 62.566278 91.652945 L 79.720033 91.652945 C 79.720033 89.687604 79.780433 86.537484 79.905881 82.207229 C 79.905881 77.876974 79.905881 72.761513 79.905881 66.870136 L 79.905881 -17.142377 L 62.566278 -17.142377 L 62.566278 28.831731 L 31.139409 28.831731 L 31.139409 -17.142377 L 13.9903 -17.142377 Z M 13.9903 91.652945 " stroke="#0081af" stroke-width="4.255323" stroke-opacity="1" stroke-miterlimit="4"/></svg>