<svg xmlns="http://www.w3.org/2000/svg" xmlns:xlink="http://www.w3.org/1999/xlink" width="500" zoomAndPan="magnify" viewBox="0 0 375 374.999991" height="500" preserveAspectRatio="xMidYMid meet" version="1.0"><defs><g/><clipPath id="a444aa808a"><path d="M 0 0 L 375 0 L 375 285.75 L 0 285.75 Z M 0 0 " clip-rule="nonzero"/></clipPath></defs><g clip-path="url(#a444aa808a)"><path fill="#eaba6b" d="M 316.195312 84.726562 L 374.925781 119.058594 L 374.925781 76.519531 L 318.421875 76.519531 L 187.5 0 L 56.589844 76.519531 L 0.0859375 76.519531 L 0.0859375 119.058594 L 53.992188 87.550781 L 53.992188 285.722656 L 62.203125 285.722656 L 62.203125 82.75 L 187.5 9.507812 L 302.140625 76.519531 L 111.210938 76.519531 L 111.210938 285.722656 L 160.648438 285.722656 L 160.648438 198.539062 L 214.375 198.539062 L 214.375 285.722656 L 321.769531 285.722656 L 321.769531 116.472656 L 313.558594 116.472656 L 313.558594 277.511719 L 222.578125 277.511719 L 222.578125 190.328125 L 152.429688 190.328125 L 152.429688 277.511719 L 119.414062 277.511719 L 119.414062 84.726562 Z M 366.714844 84.726562 L 366.714844 104.75 L 332.457031 84.726562 Z M 8.292969 104.75 L 8.292969 84.726562 L 42.550781 84.726562 Z M 8.292969 104.75 " fill-opacity="1" fill-rule="nonzero"/></g><g fill="#0081af" fill-opacity="1"><g transform="translate(31.672389, 351.019107)"><g><path d="M 26.15625 -60.34375 C 29.363281 -60.34375 32.5 -59.875 35.5625 -58.9375 C 38.625 -58.007812 40.898438 -57.09375 42.390625 -56.1875 L 44.546875 -54.75 L 39.078125 -43.96875 C 38.648438 -44.257812 38.050781 -44.628906 37.28125 -45.078125 C 36.519531 -45.535156 35.082031 -46.144531 32.96875 -46.90625 C 30.863281 -47.675781 28.898438 -48.0625 27.078125 -48.0625 C 24.828125 -48.0625 23.09375 -47.582031 21.875 -46.625 C 20.65625 -45.664062 20.046875 -44.375 20.046875 -42.75 C 20.046875 -41.9375 20.332031 -41.179688 20.90625 -40.484375 C 21.476562 -39.785156 22.457031 -39.039062 23.84375 -38.25 C 25.238281 -37.46875 26.460938 -36.835938 27.515625 -36.359375 C 28.566406 -35.878906 30.195312 -35.160156 32.40625 -34.203125 C 36.238281 -32.566406 39.503906 -30.347656 42.203125 -27.546875 C 44.910156 -24.742188 46.265625 -21.570312 46.265625 -18.03125 C 46.265625 -14.632812 45.65625 -11.664062 44.4375 -9.125 C 43.21875 -6.582031 41.539062 -4.59375 39.40625 -3.15625 C 37.269531 -1.71875 34.910156 -0.65625 32.328125 0.03125 C 29.742188 0.726562 26.941406 1.078125 23.921875 1.078125 C 21.335938 1.078125 18.800781 0.8125 16.3125 0.28125 C 13.820312 -0.238281 11.738281 -0.894531 10.0625 -1.6875 C 8.382812 -2.476562 6.875 -3.253906 5.53125 -4.015625 C 4.1875 -4.785156 3.207031 -5.4375 2.59375 -5.96875 L 1.65625 -6.75 L 8.40625 -18.109375 C 8.976562 -17.628906 9.765625 -17.015625 10.765625 -16.265625 C 11.773438 -15.523438 13.5625 -14.53125 16.125 -13.28125 C 18.6875 -12.039062 20.953125 -11.421875 22.921875 -11.421875 C 28.617188 -11.421875 31.46875 -13.363281 31.46875 -17.25 C 31.46875 -18.0625 31.265625 -18.8125 30.859375 -19.5 C 30.453125 -20.195312 29.734375 -20.890625 28.703125 -21.578125 C 27.671875 -22.273438 26.757812 -22.828125 25.96875 -23.234375 C 25.175781 -23.648438 23.878906 -24.273438 22.078125 -25.109375 C 20.285156 -25.941406 18.960938 -26.578125 18.109375 -27.015625 C 14.515625 -28.785156 11.734375 -31 9.765625 -33.65625 C 7.804688 -36.3125 6.828125 -39.175781 6.828125 -42.25 C 6.828125 -47.5625 8.789062 -51.90625 12.71875 -55.28125 C 16.644531 -58.65625 21.125 -60.34375 26.15625 -60.34375 Z M 26.15625 -60.34375 "/></g></g></g><g fill="#eaba6b" fill-opacity="1"><g transform="translate(76.35598, 351.019107)"><g><path d="M 6.46875 -36.859375 L 6.46875 -50.578125 L 19.1875 -50.578125 L 19.1875 -36.859375 L 26.9375 -36.859375 L 26.9375 -27.15625 L 19.1875 -27.15625 L 19.1875 -15.453125 C 19.1875 -12.046875 20.144531 -10.34375 22.0625 -10.34375 C 22.539062 -10.34375 23.039062 -10.4375 23.5625 -10.625 C 24.09375 -10.820312 24.5 -11.015625 24.78125 -11.203125 L 25.21875 -11.5 L 28.375 -1.21875 C 25.644531 0.3125 22.53125 1.078125 19.03125 1.078125 C 16.644531 1.078125 14.585938 0.660156 12.859375 -0.171875 C 11.140625 -1.015625 9.832031 -2.140625 8.9375 -3.546875 C 8.050781 -4.960938 7.414062 -6.445312 7.03125 -8 C 6.65625 -9.5625 6.46875 -11.226562 6.46875 -13 L 6.46875 -27.15625 L 1.15625 -27.15625 L 1.15625 -36.859375 Z M 6.46875 -36.859375 "/></g></g></g><g fill="#eaba6b" fill-opacity="1"><g transform="translate(101.138845, 351.019107)"><g><path d="M 6.828125 -4.5625 C 3.378906 -8.320312 1.65625 -12.929688 1.65625 -18.390625 C 1.65625 -23.847656 3.378906 -28.46875 6.828125 -32.25 C 10.273438 -36.039062 14.65625 -37.9375 19.96875 -37.9375 C 24.851562 -37.9375 28.878906 -36.398438 32.046875 -33.328125 L 32.046875 -36.859375 L 44.765625 -36.859375 L 44.765625 0 L 32.1875 0 L 32.1875 -4.171875 L 32.046875 -4.171875 C 28.878906 -0.671875 24.851562 1.078125 19.96875 1.078125 C 14.65625 1.078125 10.273438 -0.800781 6.828125 -4.5625 Z M 17.625 -24.640625 C 15.976562 -23.015625 15.15625 -20.929688 15.15625 -18.390625 C 15.15625 -15.847656 15.945312 -13.773438 17.53125 -12.171875 C 19.113281 -10.566406 21.195312 -9.765625 23.78125 -9.765625 C 26.269531 -9.765625 28.316406 -10.578125 29.921875 -12.203125 C 31.523438 -13.835938 32.328125 -15.898438 32.328125 -18.390625 C 32.328125 -20.929688 31.5 -23.015625 29.84375 -24.640625 C 28.195312 -26.265625 26.175781 -27.078125 23.78125 -27.078125 C 21.332031 -27.078125 19.28125 -26.265625 17.625 -24.640625 Z M 17.625 -24.640625 "/></g></g></g><g fill="#eaba6b" fill-opacity="1"><g transform="translate(146.610476, 351.019107)"><g><path d="M 32.265625 -36.859375 L 46.90625 -36.859375 L 17.96875 18.671875 L 3.3125 18.671875 L 16.015625 -5.75 L -1.4375 -36.859375 L 13.21875 -36.859375 L 23.5 -17.96875 Z M 32.265625 -36.859375 "/></g></g></g><g fill="#0081af" fill-opacity="1"><g transform="translate(188.492691, 351.019107)"><g><path d="M 17.8125 -23.78125 L 17.8125 0 L 4.3125 0 L 4.3125 -59.265625 L 17.8125 -59.265625 L 17.8125 -35.640625 L 36.921875 -35.640625 L 36.921875 -59.265625 L 50.4375 -59.265625 L 50.4375 0 L 36.921875 0 L 36.921875 -23.78125 Z M 17.8125 -23.78125 "/></g></g></g><g fill="#eaba6b" fill-opacity="1"><g transform="translate(239.645035, 351.019107)"><g><path d="M 16.3125 -36.859375 L 16.3125 -19.328125 C 16.3125 -15.679688 16.859375 -13.09375 17.953125 -11.5625 C 19.054688 -10.03125 20.925781 -9.265625 23.5625 -9.265625 C 26.195312 -9.265625 28.066406 -10.03125 29.171875 -11.5625 C 30.273438 -13.09375 30.828125 -15.679688 30.828125 -19.328125 L 30.828125 -36.859375 L 43.53125 -36.859375 L 43.53125 -16.234375 C 43.53125 -10.109375 41.9375 -5.691406 38.75 -2.984375 C 35.570312 -0.273438 30.507812 1.078125 23.5625 1.078125 C 16.613281 1.078125 11.546875 -0.273438 8.359375 -2.984375 C 5.179688 -5.691406 3.59375 -10.109375 3.59375 -16.234375 L 3.59375 -36.859375 Z M 16.3125 -36.859375 "/></g></g></g><g fill="#eaba6b" fill-opacity="1"><g transform="translate(283.177099, 351.019107)"><g><path d="M 42.25 -32.25 C 45.695312 -28.46875 47.421875 -23.847656 47.421875 -18.390625 C 47.421875 -12.929688 45.695312 -8.320312 42.25 -4.5625 C 38.800781 -0.800781 34.414062 1.078125 29.09375 1.078125 C 24.207031 1.078125 20.1875 -0.671875 17.03125 -4.171875 L 16.890625 -4.171875 L 16.890625 0 L 4.3125 0 L 4.3125 -61.78125 L 17.03125 -61.78125 L 17.03125 -33.328125 C 20.1875 -36.398438 24.207031 -37.9375 29.09375 -37.9375 C 34.414062 -37.9375 38.800781 -36.039062 42.25 -32.25 Z M 31.53125 -12.171875 C 33.113281 -13.773438 33.90625 -15.847656 33.90625 -18.390625 C 33.90625 -20.929688 33.078125 -23.015625 31.421875 -24.640625 C 29.773438 -26.265625 27.726562 -27.078125 25.28125 -27.078125 C 22.894531 -27.078125 20.875 -26.265625 19.21875 -24.640625 C 17.5625 -23.015625 16.734375 -20.929688 16.734375 -18.390625 C 16.734375 -15.898438 17.535156 -13.835938 19.140625 -12.203125 C 20.742188 -10.578125 22.789062 -9.765625 25.28125 -9.765625 C 27.875 -9.765625 29.957031 -10.566406 31.53125 -12.171875 Z M 31.53125 -12.171875 "/></g></g></g></svg>