<svg xmlns="http://www.w3.org/2000/svg" xmlns:xlink="http://www.w3.org/1999/xlink" width="500" zoomAndPan="magnify" viewBox="0 0 375 374.999991" height="500" preserveAspectRatio="xMidYMid meet" version="1.0"><defs><clipPath id="b0e65fdf16"><path d="M 126 40.761719 L 251 40.761719 L 251 197 L 126 197 Z M 126 40.761719 " clip-rule="nonzero"/></clipPath><clipPath id="56739fb323"><path d="M 224 40.761719 L 251 40.761719 L 251 70 L 224 70 Z M 224 40.761719 " clip-rule="nonzero"/></clipPath></defs><path fill="#ffffff" d="M 141.722656 195.316406 C 134.242188 195.316406 128.160156 189.242188 128.160156 181.765625 L 128.160156 55.863281 C 128.160156 48.394531 134.242188 42.316406 141.722656 42.316406 L 227.675781 42.316406 C 228.140625 42.316406 228.582031 42.519531 228.882812 42.875 L 248.121094 65.34375 C 248.367188 65.632812 248.503906 66 248.503906 66.378906 L 248.503906 181.765625 C 248.503906 189.242188 242.417969 195.316406 234.9375 195.316406 L 141.722656 195.316406 " fill-opacity="1" fill-rule="nonzero"/><g clip-path="url(#b0e65fdf16)"><path fill="#5a231c" d="M 227.675781 40.726562 L 141.722656 40.726562 C 133.367188 40.726562 126.566406 47.519531 126.566406 55.863281 L 126.566406 181.765625 C 126.566406 190.117188 133.367188 196.902344 141.722656 196.902344 L 234.9375 196.902344 C 243.292969 196.902344 250.097656 190.117188 250.097656 181.765625 L 250.097656 66.378906 C 250.097656 65.621094 249.824219 64.890625 249.332031 64.3125 L 230.09375 41.839844 C 229.488281 41.132812 228.605469 40.726562 227.675781 40.726562 Z M 227.675781 43.902344 L 246.910156 66.378906 L 246.910156 181.765625 C 246.910156 188.371094 241.550781 193.726562 234.9375 193.726562 L 141.722656 193.726562 C 135.105469 193.726562 129.746094 188.371094 129.746094 181.765625 L 129.746094 55.863281 C 129.746094 49.257812 135.105469 43.902344 141.722656 43.902344 L 227.675781 43.902344 " fill-opacity="1" fill-rule="nonzero"/></g><path fill="#bdbcbc" d="M 227.675781 43.902344 L 212.578125 43.902344 C 222.773438 57.632812 228.859375 74.511719 228.859375 92.601562 C 228.859375 137.578125 191.273438 175.109375 146.226562 175.109375 C 140.597656 175.109375 135.085938 174.519531 129.746094 173.40625 L 129.746094 181.765625 C 129.746094 188.371094 135.105469 193.726562 141.722656 193.726562 L 234.9375 193.726562 C 241.550781 193.726562 246.910156 188.371094 246.910156 181.765625 L 246.910156 66.378906 L 227.675781 43.902344 " fill-opacity="1" fill-rule="nonzero"/><path fill="#ffffff" d="M 227.808594 68.015625 C 226.925781 68.015625 226.214844 67.304688 226.214844 66.421875 L 226.214844 43.957031 C 226.214844 43.289062 226.632812 42.695312 227.253906 42.46875 C 227.433594 42.398438 227.625 42.367188 227.808594 42.367188 C 228.261719 42.367188 228.710938 42.5625 229.019531 42.921875 L 248.222656 65.390625 C 248.625 65.863281 248.714844 66.523438 248.457031 67.089844 C 248.195312 67.652344 247.628906 68.015625 247.011719 68.015625 L 227.808594 68.015625 " fill-opacity="1" fill-rule="nonzero"/><g clip-path="url(#56739fb323)"><path fill="#5a231c" d="M 227.808594 40.777344 C 227.433594 40.777344 227.066406 40.84375 226.703125 40.972656 C 225.453125 41.433594 224.625 42.628906 224.625 43.957031 L 224.625 66.421875 C 224.625 68.179688 226.050781 69.601562 227.808594 69.601562 L 247.011719 69.601562 C 248.25 69.601562 249.382812 68.878906 249.902344 67.753906 C 250.421875 66.628906 250.238281 65.300781 249.433594 64.355469 L 230.230469 41.890625 C 229.609375 41.171875 228.71875 40.777344 227.808594 40.777344 Z M 227.808594 43.957031 L 247.011719 66.421875 L 227.808594 66.421875 L 227.808594 43.957031 " fill-opacity="1" fill-rule="nonzero"/></g><path fill="#5a231c" d="M 154.316406 101.746094 L 171.859375 119.261719 C 172.476562 119.886719 173.484375 119.886719 174.105469 119.261719 C 174.730469 118.644531 174.730469 117.636719 174.109375 117.015625 L 156.570312 99.496094 C 155.949219 98.878906 154.941406 98.878906 154.316406 99.496094 C 153.695312 100.121094 153.695312 101.125 154.316406 101.746094 " fill-opacity="1" fill-rule="nonzero"/><path fill="#5a231c" d="M 171.859375 99.496094 L 154.316406 117.015625 C 153.695312 117.636719 153.695312 118.644531 154.316406 119.261719 C 154.941406 119.886719 155.949219 119.886719 156.570312 119.261719 L 174.109375 101.746094 C 174.730469 101.125 174.730469 100.121094 174.105469 99.496094 C 173.484375 98.878906 172.476562 98.878906 171.859375 99.496094 " fill-opacity="1" fill-rule="nonzero"/><path fill="#5a231c" d="M 202.546875 101.746094 L 220.082031 119.261719 C 220.703125 119.886719 221.710938 119.886719 222.328125 119.261719 C 222.953125 118.644531 222.953125 117.636719 222.335938 117.015625 L 204.796875 99.496094 C 204.179688 98.878906 203.171875 98.878906 202.546875 99.496094 C 201.925781 100.121094 201.925781 101.125 202.546875 101.746094 " fill-opacity="1" fill-rule="nonzero"/><path fill="#5a231c" d="M 220.082031 99.496094 L 202.546875 117.015625 C 201.925781 117.636719 201.925781 118.644531 202.546875 119.261719 C 203.171875 119.886719 204.179688 119.886719 204.796875 119.261719 L 222.335938 101.746094 C 222.953125 101.125 222.953125 100.121094 222.328125 99.496094 C 221.710938 98.878906 220.703125 98.878906 220.082031 99.496094 " fill-opacity="1" fill-rule="nonzero"/><path fill="#5a231c" d="M 156.902344 145.214844 L 219.746094 145.214844 C 220.625 145.214844 221.335938 144.503906 221.335938 143.628906 C 221.335938 142.746094 220.625 142.035156 219.746094 142.035156 L 156.902344 142.035156 C 156.027344 142.035156 155.308594 142.746094 155.308594 143.628906 C 155.308594 144.503906 156.027344 145.214844 156.902344 145.214844 " fill-opacity="1" fill-rule="nonzero"/><path fill="#c42e27" d="M 189.410156 143.628906 L 189.410156 155.023438 C 189.410156 161.949219 195.03125 167.5625 201.96875 167.5625 C 208.902344 167.5625 214.523438 161.949219 214.523438 155.023438 L 214.523438 143.628906 L 189.410156 143.628906 " fill-opacity="1" fill-rule="nonzero"/><path fill="#5a231c" d="M 189.410156 143.628906 L 187.816406 143.628906 L 187.816406 155.023438 C 187.820312 162.828125 194.152344 169.152344 201.96875 169.152344 C 209.777344 169.152344 216.113281 162.828125 216.113281 155.023438 L 216.113281 143.628906 C 216.113281 143.207031 215.945312 142.796875 215.648438 142.5 C 215.355469 142.207031 214.941406 142.035156 214.523438 142.035156 L 189.410156 142.035156 C 188.992188 142.035156 188.578125 142.207031 188.285156 142.5 C 187.988281 142.796875 187.816406 143.207031 187.816406 143.628906 L 189.410156 143.628906 L 189.410156 145.214844 L 212.929688 145.214844 L 212.929688 155.023438 C 212.929688 158.054688 211.707031 160.777344 209.71875 162.765625 C 207.730469 164.75 205 165.972656 201.96875 165.972656 C 198.9375 165.972656 196.203125 164.75 194.214844 162.765625 C 192.226562 160.777344 191.003906 158.054688 191.003906 155.023438 L 191.003906 143.628906 L 189.410156 143.628906 L 189.410156 145.214844 L 189.410156 143.628906 " fill-opacity="1" fill-rule="nonzero"/><path fill="#5a231c" d="M 200.375 144.273438 L 200.375 158.667969 C 200.375 159.546875 201.085938 160.257812 201.96875 160.257812 C 202.847656 160.257812 203.5625 159.546875 203.5625 158.667969 L 203.5625 144.273438 C 203.5625 143.394531 202.847656 142.679688 201.96875 142.679688 C 201.085938 142.679688 200.375 143.394531 200.375 144.273438 " fill-opacity="1" fill-rule="nonzero"/><path fill="#50c4bc" d="M 43.707031 132.832031 L 62.269531 132.832031 L 62.269531 105.539062 Z M 62.269531 43.828125 L 96.734375 43.828125 L 96.734375 193.726562 L 62.269531 193.726562 L 62.269531 167.25 L 2.105469 167.25 L 2.105469 132.832031 L 62.269531 43.828125 " fill-opacity="1" fill-rule="nonzero"/><path fill="#50c4bc" d="M 308.636719 132.832031 L 327.195312 132.832031 L 327.195312 105.539062 Z M 327.195312 43.828125 L 361.660156 43.828125 L 361.660156 193.726562 L 327.195312 193.726562 L 327.195312 167.25 L 267.03125 167.25 L 267.03125 132.832031 L 327.195312 43.828125 " fill-opacity="1" fill-rule="nonzero"/><path fill="#50c4bc" d="M 96.425781 244.945312 L 113.375 244.945312 L 113.375 256.152344 L 96.425781 256.152344 L 96.425781 279.125 L 117.75 279.125 L 117.75 290.332031 L 84.082031 290.332031 L 84.082031 211.882812 L 117.75 211.882812 L 117.75 223.089844 L 96.425781 223.089844 L 96.425781 244.945312 " fill-opacity="1" fill-rule="nonzero"/><path fill="#50c4bc" d="M 137.726562 223.089844 L 137.726562 247.183594 L 142.554688 247.183594 C 147.152344 247.183594 149.960938 245.167969 149.960938 238.890625 L 149.960938 231.15625 C 149.960938 225.554688 148.054688 223.089844 143.675781 223.089844 Z M 151.199219 290.332031 C 150.523438 288.316406 150.074219 287.082031 150.074219 280.691406 L 150.074219 268.367188 C 150.074219 261.082031 147.601562 258.390625 141.992188 258.390625 L 137.726562 258.390625 L 137.726562 290.332031 L 125.382812 290.332031 L 125.382812 211.882812 L 144.015625 211.882812 C 156.808594 211.882812 162.304688 217.820312 162.304688 229.929688 L 162.304688 236.089844 C 162.304688 244.160156 159.722656 249.429688 154.226562 252 C 160.398438 254.578125 162.421875 260.519531 162.421875 268.707031 L 162.421875 280.808594 C 162.421875 284.617188 162.527344 287.421875 163.769531 290.332031 L 151.199219 290.332031 " fill-opacity="1" fill-rule="nonzero"/><path fill="#50c4bc" d="M 182.84375 223.089844 L 182.84375 247.183594 L 187.675781 247.183594 C 192.269531 247.183594 195.082031 245.167969 195.082031 238.890625 L 195.082031 231.15625 C 195.082031 225.554688 193.171875 223.089844 188.792969 223.089844 Z M 196.3125 290.332031 C 195.636719 288.316406 195.191406 287.082031 195.191406 280.691406 L 195.191406 268.367188 C 195.191406 261.082031 192.722656 258.390625 187.113281 258.390625 L 182.84375 258.390625 L 182.84375 290.332031 L 170.5 290.332031 L 170.5 211.882812 L 189.132812 211.882812 C 201.925781 211.882812 207.425781 217.820312 207.425781 229.929688 L 207.425781 236.089844 C 207.425781 244.160156 204.84375 249.429688 199.34375 252 C 205.515625 254.578125 207.535156 260.519531 207.535156 268.707031 L 207.535156 280.808594 C 207.535156 284.617188 207.648438 287.421875 208.882812 290.332031 L 196.3125 290.332031 " fill-opacity="1" fill-rule="nonzero"/><path fill="#50c4bc" d="M 226.957031 272.289062 C 226.957031 277.890625 229.421875 280.019531 233.351562 280.019531 C 237.277344 280.019531 239.742188 277.890625 239.742188 272.289062 L 239.742188 229.929688 C 239.742188 224.320312 237.277344 222.191406 233.351562 222.191406 C 229.421875 222.191406 226.957031 224.320312 226.957031 229.929688 Z M 214.609375 230.710938 C 214.609375 218.160156 221.230469 210.984375 233.351562 210.984375 C 245.46875 210.984375 252.09375 218.160156 252.09375 230.710938 L 252.09375 271.507812 C 252.09375 284.058594 245.46875 291.226562 233.351562 291.226562 C 221.230469 291.226562 214.609375 284.058594 214.609375 271.507812 L 214.609375 230.710938 " fill-opacity="1" fill-rule="nonzero"/><path fill="#50c4bc" d="M 272.410156 223.089844 L 272.410156 247.183594 L 277.234375 247.183594 C 281.835938 247.183594 284.640625 245.167969 284.640625 238.890625 L 284.640625 231.15625 C 284.640625 225.554688 282.730469 223.089844 278.355469 223.089844 Z M 285.875 290.332031 C 285.203125 288.316406 284.75 287.082031 284.75 280.691406 L 284.75 268.367188 C 284.75 261.082031 282.285156 258.390625 276.671875 258.390625 L 272.410156 258.390625 L 272.410156 290.332031 L 260.058594 290.332031 L 260.058594 211.882812 L 278.691406 211.882812 C 291.484375 211.882812 296.984375 217.820312 296.984375 229.929688 L 296.984375 236.089844 C 296.984375 244.160156 294.402344 249.429688 288.90625 252 C 295.078125 254.578125 297.097656 260.519531 297.097656 268.707031 L 297.097656 280.808594 C 297.097656 284.617188 297.210938 287.421875 298.445312 290.332031 L 285.875 290.332031 " fill-opacity="1" fill-rule="nonzero"/><path fill="#f5801f" d="M 17.5 227.730469 L 59.507812 227.730469 C 60.640625 227.730469 61.5625 226.8125 61.5625 225.675781 C 61.5625 224.542969 60.640625 223.625 59.507812 223.625 L 17.5 223.625 C 16.359375 223.625 15.441406 224.542969 15.441406 225.675781 C 15.441406 226.8125 16.359375 227.730469 17.5 227.730469 " fill-opacity="1" fill-rule="nonzero"/><path fill="#f5801f" d="M 42.15625 237.765625 L 66.8125 237.765625 C 67.945312 237.765625 68.867188 236.847656 68.867188 235.714844 C 68.867188 234.578125 67.945312 233.65625 66.8125 233.65625 L 42.15625 233.65625 C 41.015625 233.65625 40.097656 234.578125 40.097656 235.714844 C 40.097656 236.847656 41.015625 237.765625 42.15625 237.765625 " fill-opacity="1" fill-rule="nonzero"/><path fill="#f5801f" d="M 18.410156 255.09375 L 55.855469 255.09375 C 56.988281 255.09375 57.910156 254.171875 57.910156 253.035156 C 57.910156 251.90625 56.988281 250.984375 55.855469 250.984375 L 18.410156 250.984375 C 17.269531 250.984375 16.355469 251.90625 16.355469 253.035156 C 16.355469 254.171875 17.269531 255.09375 18.410156 255.09375 " fill-opacity="1" fill-rule="nonzero"/><path fill="#f5801f" d="M 48.546875 268.769531 L 66.8125 268.769531 C 67.945312 268.769531 68.867188 267.855469 68.867188 266.71875 C 68.867188 265.585938 67.945312 264.664062 66.8125 264.664062 L 48.546875 264.664062 C 47.410156 264.664062 46.492188 265.585938 46.492188 266.71875 C 46.492188 267.855469 47.410156 268.769531 48.546875 268.769531 " fill-opacity="1" fill-rule="nonzero"/><path fill="#f5801f" d="M 306.085938 235.9375 L 334.398438 235.9375 C 335.53125 235.9375 336.453125 235.015625 336.453125 233.886719 C 336.453125 232.753906 335.53125 231.835938 334.398438 231.835938 L 306.085938 231.835938 C 304.953125 231.835938 304.03125 232.753906 304.03125 233.886719 C 304.03125 235.015625 304.953125 235.9375 306.085938 235.9375 " fill-opacity="1" fill-rule="nonzero"/><path fill="#f5801f" d="M 308.828125 242.320312 L 362.707031 242.320312 C 363.839844 242.320312 364.761719 241.40625 364.761719 240.269531 C 364.761719 239.140625 363.839844 238.21875 362.707031 238.21875 L 308.828125 238.21875 C 307.6875 238.21875 306.773438 239.140625 306.773438 240.269531 C 306.773438 241.40625 307.6875 242.320312 308.828125 242.320312 " fill-opacity="1" fill-rule="nonzero"/><path fill="#f5801f" d="M 306.085938 265.125 L 333.484375 265.125 C 334.617188 265.125 335.539062 264.207031 335.539062 263.070312 C 335.539062 261.9375 334.617188 261.019531 333.484375 261.019531 L 306.085938 261.019531 C 304.953125 261.019531 304.03125 261.9375 304.03125 263.070312 C 304.03125 264.207031 304.953125 265.125 306.085938 265.125 " fill-opacity="1" fill-rule="nonzero"/><path fill="#f5801f" d="M 325.261719 276.976562 L 372.753906 276.976562 C 373.886719 276.976562 374.808594 276.058594 374.808594 274.925781 C 374.808594 273.792969 373.886719 272.875 372.753906 272.875 L 325.261719 272.875 C 324.128906 272.875 323.207031 273.792969 323.207031 274.925781 C 323.207031 276.058594 324.128906 276.976562 325.261719 276.976562 " fill-opacity="1" fill-rule="nonzero"/><path fill="#c42e27" d="M 86.726562 307.597656 L 86.726562 317.867188 L 88.984375 317.867188 C 90.503906 317.867188 91.328125 317.171875 91.328125 315.007812 L 91.328125 310.457031 C 91.328125 308.289062 90.503906 307.597656 88.984375 307.597656 Z M 96.101562 310.761719 L 96.101562 314.703125 C 96.101562 319.554688 93.753906 322.199219 88.984375 322.199219 L 86.726562 322.199219 L 86.726562 333.59375 L 81.957031 333.59375 L 81.957031 303.265625 L 88.984375 303.265625 C 93.753906 303.265625 96.101562 305.90625 96.101562 310.761719 " fill-opacity="1" fill-rule="nonzero"/><path fill="#c42e27" d="M 102.300781 323.972656 L 106.902344 323.972656 L 104.601562 308.636719 Z M 113.195312 333.59375 L 108.378906 333.59375 L 107.550781 328.09375 L 101.695312 328.09375 L 100.871094 333.59375 L 96.488281 333.59375 L 101.351562 303.265625 L 108.332031 303.265625 L 113.195312 333.59375 " fill-opacity="1" fill-rule="nonzero"/><path fill="#c42e27" d="M 122.519531 316.699219 L 129.199219 316.699219 L 129.199219 326.3125 C 129.199219 331.171875 126.773438 333.941406 122.085938 333.941406 C 117.398438 333.941406 114.972656 331.171875 114.972656 326.3125 L 114.972656 310.542969 C 114.972656 305.691406 117.398438 302.914062 122.085938 302.914062 C 126.773438 302.914062 129.199219 305.691406 129.199219 310.542969 L 129.199219 313.492188 L 124.691406 313.492188 L 124.691406 310.238281 C 124.691406 308.074219 123.734375 307.25 122.214844 307.25 C 120.699219 307.25 119.746094 308.074219 119.746094 310.238281 L 119.746094 326.621094 C 119.746094 328.785156 120.699219 329.566406 122.214844 329.566406 C 123.734375 329.566406 124.691406 328.785156 124.691406 326.621094 L 124.691406 321.027344 L 122.519531 321.027344 L 122.519531 316.699219 " fill-opacity="1" fill-rule="nonzero"/><path fill="#c42e27" d="M 137.050781 316.042969 L 143.601562 316.042969 L 143.601562 320.378906 L 137.050781 320.378906 L 137.050781 329.261719 L 145.296875 329.261719 L 145.296875 333.59375 L 132.28125 333.59375 L 132.28125 303.265625 L 145.296875 303.265625 L 145.296875 307.597656 L 137.050781 307.597656 L 137.050781 316.042969 " fill-opacity="1" fill-rule="nonzero"/><path fill="#c42e27" d="M 159.21875 311.628906 L 159.21875 333.59375 L 154.921875 333.59375 L 154.921875 303.265625 L 160.910156 303.265625 L 165.8125 321.417969 L 165.8125 303.265625 L 170.066406 303.265625 L 170.066406 333.59375 L 165.164062 333.59375 L 159.21875 311.628906 " fill-opacity="1" fill-rule="nonzero"/><path fill="#c42e27" d="M 177.875 326.621094 C 177.875 328.785156 178.824219 329.609375 180.34375 329.609375 C 181.859375 329.609375 182.820312 328.785156 182.820312 326.621094 L 182.820312 310.238281 C 182.820312 308.074219 181.859375 307.25 180.34375 307.25 C 178.824219 307.25 177.875 308.074219 177.875 310.238281 Z M 173.097656 310.542969 C 173.097656 305.691406 175.660156 302.914062 180.34375 302.914062 C 185.027344 302.914062 187.59375 305.691406 187.59375 310.542969 L 187.59375 326.3125 C 187.59375 331.171875 185.027344 333.941406 180.34375 333.941406 C 175.660156 333.941406 173.097656 331.171875 173.097656 326.3125 L 173.097656 310.542969 " fill-opacity="1" fill-rule="nonzero"/><path fill="#c42e27" d="M 189.28125 303.265625 L 204.03125 303.265625 L 204.03125 307.597656 L 199.042969 307.597656 L 199.042969 333.59375 L 194.265625 333.59375 L 194.265625 307.597656 L 189.28125 307.597656 L 189.28125 303.265625 " fill-opacity="1" fill-rule="nonzero"/><path fill="#c42e27" d="M 217.605469 316.742188 L 223.769531 316.742188 L 223.769531 321.074219 L 217.605469 321.074219 L 217.605469 333.59375 L 212.835938 333.59375 L 212.835938 303.265625 L 225.464844 303.265625 L 225.464844 307.597656 L 217.605469 307.597656 L 217.605469 316.742188 " fill-opacity="1" fill-rule="nonzero"/><path fill="#c42e27" d="M 232.140625 326.621094 C 232.140625 328.785156 233.09375 329.609375 234.613281 329.609375 C 236.128906 329.609375 237.085938 328.785156 237.085938 326.621094 L 237.085938 310.238281 C 237.085938 308.074219 236.128906 307.25 234.613281 307.25 C 233.09375 307.25 232.140625 308.074219 232.140625 310.238281 Z M 227.367188 310.542969 C 227.367188 305.691406 229.925781 302.914062 234.613281 302.914062 C 239.296875 302.914062 241.855469 305.691406 241.855469 310.542969 L 241.855469 326.3125 C 241.855469 331.171875 239.296875 333.941406 234.613281 333.941406 C 229.925781 333.941406 227.367188 331.171875 227.367188 326.3125 L 227.367188 310.542969 " fill-opacity="1" fill-rule="nonzero"/><path fill="#c42e27" d="M 249.492188 303.265625 L 249.492188 326.664062 C 249.492188 328.828125 250.445312 329.609375 251.964844 329.609375 C 253.480469 329.609375 254.4375 328.828125 254.4375 326.664062 L 254.4375 303.265625 L 258.949219 303.265625 L 258.949219 326.359375 C 258.949219 331.210938 256.519531 333.980469 251.835938 333.980469 C 247.152344 333.980469 244.71875 331.210938 244.71875 326.359375 L 244.71875 303.265625 L 249.492188 303.265625 " fill-opacity="1" fill-rule="nonzero"/><path fill="#c42e27" d="M 266.449219 311.628906 L 266.449219 333.59375 L 262.15625 333.59375 L 262.15625 303.265625 L 268.144531 303.265625 L 273.046875 321.417969 L 273.046875 303.265625 L 277.300781 303.265625 L 277.300781 333.59375 L 272.398438 333.59375 L 266.449219 311.628906 " fill-opacity="1" fill-rule="nonzero"/><path fill="#c42e27" d="M 285.496094 307.597656 L 285.496094 329.261719 L 288.1875 329.261719 C 289.707031 329.261719 290.617188 328.480469 290.617188 326.3125 L 290.617188 310.542969 C 290.617188 308.378906 289.707031 307.597656 288.1875 307.597656 Z M 280.722656 303.265625 L 288.273438 303.265625 C 293.042969 303.265625 295.390625 305.90625 295.390625 310.761719 L 295.390625 326.097656 C 295.390625 330.953125 293.042969 333.59375 288.273438 333.59375 L 280.722656 333.59375 L 280.722656 303.265625 " fill-opacity="1" fill-rule="nonzero"/></svg>